<svg width="70" height="70" viewBox="0 0 70 70" fill="none" xmlns="http://www.w3.org/2000/svg"><mask id="a" style="mask-type:alpha" maskUnits="userSpaceOnUse" x="0" y="0" width="70" height="70"><path fill="#C4C4C4" d="M0 0h70v70H0z"/></mask><g mask="url(#a)"><path fill="#EE3643" d="m22.21-23 70.71 70.7-21.21 21.22L1-1.78z"/><path d="m38.18 12.63.54-1.64-.05-.05-.93 1.25-3.61 3.62-1.29-1.3 6.98-6.97 1 .99-1.08 6.32-.53 1.58.05.05.9-1.22 3.64-3.64 1.29 1.28-6.98 6.98-.99-.99 1.06-6.26Zm9.51 2.88 4.11 4.1-1.2 1.22-2.76-2.76-1.61 1.62 2.5 2.5-1.2 1.2-2.5-2.5-1.7 1.7 2.8 2.8-1.2 1.2-4.17-4.15 6.93-6.93Zm4.52 12.26-1.1 1.35.04.04 1.39-1.1 5.06-2.65.89.9-2.69 5.05-1.08 1.37.03.04 1.4-1.1 4.7-3.01 1.37 1.37-8.9 5.07-.9-.9 2.61-5.1.9-1.22-.06-.05-1.23.9-5.07 2.61-.96-.96 5.08-8.88 1.47 1.48-2.95 4.79Z" fill="#fff"/></g></svg>